G04 #@! TF.GenerationSoftware,KiCad,Pcbnew,(5.1.4)-1*
G04 #@! TF.CreationDate,2019-10-04T20:40:23-05:00*
G04 #@! TF.ProjectId,GettingToBlinky5.0,47657474-696e-4675-946f-426c696e6b79,rev?*
G04 #@! TF.SameCoordinates,Original*
G04 #@! TF.FileFunction,Copper,L1,Top*
G04 #@! TF.FilePolarity,Positive*
%FSLAX46Y46*%
G04 Gerber Fmt 4.6, Leading zero omitted, Abs format (unit mm)*
G04 Created by KiCad (PCBNEW (5.1.4)-1) date 2019-10-04 20:40:23*
%MOMM*%
%LPD*%
G04 APERTURE LIST*
%ADD10C,0.100000*%
%ADD11C,0.600000*%
%ADD12C,1.150000*%
%ADD13C,0.800000*%
%ADD14C,0.250000*%
%ADD15C,0.254000*%
G04 APERTURE END LIST*
D10*
G36*
X149314703Y-94795722D02*
G01*
X149329264Y-94797882D01*
X149343543Y-94801459D01*
X149357403Y-94806418D01*
X149370710Y-94812712D01*
X149383336Y-94820280D01*
X149395159Y-94829048D01*
X149406066Y-94838934D01*
X149415952Y-94849841D01*
X149424720Y-94861664D01*
X149432288Y-94874290D01*
X149438582Y-94887597D01*
X149443541Y-94901457D01*
X149447118Y-94915736D01*
X149449278Y-94930297D01*
X149450000Y-94945000D01*
X149450000Y-95245000D01*
X149449278Y-95259703D01*
X149447118Y-95274264D01*
X149443541Y-95288543D01*
X149438582Y-95302403D01*
X149432288Y-95315710D01*
X149424720Y-95328336D01*
X149415952Y-95340159D01*
X149406066Y-95351066D01*
X149395159Y-95360952D01*
X149383336Y-95369720D01*
X149370710Y-95377288D01*
X149357403Y-95383582D01*
X149343543Y-95388541D01*
X149329264Y-95392118D01*
X149314703Y-95394278D01*
X149300000Y-95395000D01*
X147650000Y-95395000D01*
X147635297Y-95394278D01*
X147620736Y-95392118D01*
X147606457Y-95388541D01*
X147592597Y-95383582D01*
X147579290Y-95377288D01*
X147566664Y-95369720D01*
X147554841Y-95360952D01*
X147543934Y-95351066D01*
X147534048Y-95340159D01*
X147525280Y-95328336D01*
X147517712Y-95315710D01*
X147511418Y-95302403D01*
X147506459Y-95288543D01*
X147502882Y-95274264D01*
X147500722Y-95259703D01*
X147500000Y-95245000D01*
X147500000Y-94945000D01*
X147500722Y-94930297D01*
X147502882Y-94915736D01*
X147506459Y-94901457D01*
X147511418Y-94887597D01*
X147517712Y-94874290D01*
X147525280Y-94861664D01*
X147534048Y-94849841D01*
X147543934Y-94838934D01*
X147554841Y-94829048D01*
X147566664Y-94820280D01*
X147579290Y-94812712D01*
X147592597Y-94806418D01*
X147606457Y-94801459D01*
X147620736Y-94797882D01*
X147635297Y-94795722D01*
X147650000Y-94795000D01*
X149300000Y-94795000D01*
X149314703Y-94795722D01*
X149314703Y-94795722D01*
G37*
D11*
X148475000Y-95095000D03*
D10*
G36*
X149314703Y-96065722D02*
G01*
X149329264Y-96067882D01*
X149343543Y-96071459D01*
X149357403Y-96076418D01*
X149370710Y-96082712D01*
X149383336Y-96090280D01*
X149395159Y-96099048D01*
X149406066Y-96108934D01*
X149415952Y-96119841D01*
X149424720Y-96131664D01*
X149432288Y-96144290D01*
X149438582Y-96157597D01*
X149443541Y-96171457D01*
X149447118Y-96185736D01*
X149449278Y-96200297D01*
X149450000Y-96215000D01*
X149450000Y-96515000D01*
X149449278Y-96529703D01*
X149447118Y-96544264D01*
X149443541Y-96558543D01*
X149438582Y-96572403D01*
X149432288Y-96585710D01*
X149424720Y-96598336D01*
X149415952Y-96610159D01*
X149406066Y-96621066D01*
X149395159Y-96630952D01*
X149383336Y-96639720D01*
X149370710Y-96647288D01*
X149357403Y-96653582D01*
X149343543Y-96658541D01*
X149329264Y-96662118D01*
X149314703Y-96664278D01*
X149300000Y-96665000D01*
X147650000Y-96665000D01*
X147635297Y-96664278D01*
X147620736Y-96662118D01*
X147606457Y-96658541D01*
X147592597Y-96653582D01*
X147579290Y-96647288D01*
X147566664Y-96639720D01*
X147554841Y-96630952D01*
X147543934Y-96621066D01*
X147534048Y-96610159D01*
X147525280Y-96598336D01*
X147517712Y-96585710D01*
X147511418Y-96572403D01*
X147506459Y-96558543D01*
X147502882Y-96544264D01*
X147500722Y-96529703D01*
X147500000Y-96515000D01*
X147500000Y-96215000D01*
X147500722Y-96200297D01*
X147502882Y-96185736D01*
X147506459Y-96171457D01*
X147511418Y-96157597D01*
X147517712Y-96144290D01*
X147525280Y-96131664D01*
X147534048Y-96119841D01*
X147543934Y-96108934D01*
X147554841Y-96099048D01*
X147566664Y-96090280D01*
X147579290Y-96082712D01*
X147592597Y-96076418D01*
X147606457Y-96071459D01*
X147620736Y-96067882D01*
X147635297Y-96065722D01*
X147650000Y-96065000D01*
X149300000Y-96065000D01*
X149314703Y-96065722D01*
X149314703Y-96065722D01*
G37*
D11*
X148475000Y-96365000D03*
D10*
G36*
X149314703Y-97335722D02*
G01*
X149329264Y-97337882D01*
X149343543Y-97341459D01*
X149357403Y-97346418D01*
X149370710Y-97352712D01*
X149383336Y-97360280D01*
X149395159Y-97369048D01*
X149406066Y-97378934D01*
X149415952Y-97389841D01*
X149424720Y-97401664D01*
X149432288Y-97414290D01*
X149438582Y-97427597D01*
X149443541Y-97441457D01*
X149447118Y-97455736D01*
X149449278Y-97470297D01*
X149450000Y-97485000D01*
X149450000Y-97785000D01*
X149449278Y-97799703D01*
X149447118Y-97814264D01*
X149443541Y-97828543D01*
X149438582Y-97842403D01*
X149432288Y-97855710D01*
X149424720Y-97868336D01*
X149415952Y-97880159D01*
X149406066Y-97891066D01*
X149395159Y-97900952D01*
X149383336Y-97909720D01*
X149370710Y-97917288D01*
X149357403Y-97923582D01*
X149343543Y-97928541D01*
X149329264Y-97932118D01*
X149314703Y-97934278D01*
X149300000Y-97935000D01*
X147650000Y-97935000D01*
X147635297Y-97934278D01*
X147620736Y-97932118D01*
X147606457Y-97928541D01*
X147592597Y-97923582D01*
X147579290Y-97917288D01*
X147566664Y-97909720D01*
X147554841Y-97900952D01*
X147543934Y-97891066D01*
X147534048Y-97880159D01*
X147525280Y-97868336D01*
X147517712Y-97855710D01*
X147511418Y-97842403D01*
X147506459Y-97828543D01*
X147502882Y-97814264D01*
X147500722Y-97799703D01*
X147500000Y-97785000D01*
X147500000Y-97485000D01*
X147500722Y-97470297D01*
X147502882Y-97455736D01*
X147506459Y-97441457D01*
X147511418Y-97427597D01*
X147517712Y-97414290D01*
X147525280Y-97401664D01*
X147534048Y-97389841D01*
X147543934Y-97378934D01*
X147554841Y-97369048D01*
X147566664Y-97360280D01*
X147579290Y-97352712D01*
X147592597Y-97346418D01*
X147606457Y-97341459D01*
X147620736Y-97337882D01*
X147635297Y-97335722D01*
X147650000Y-97335000D01*
X149300000Y-97335000D01*
X149314703Y-97335722D01*
X149314703Y-97335722D01*
G37*
D11*
X148475000Y-97635000D03*
D10*
G36*
X149314703Y-98605722D02*
G01*
X149329264Y-98607882D01*
X149343543Y-98611459D01*
X149357403Y-98616418D01*
X149370710Y-98622712D01*
X149383336Y-98630280D01*
X149395159Y-98639048D01*
X149406066Y-98648934D01*
X149415952Y-98659841D01*
X149424720Y-98671664D01*
X149432288Y-98684290D01*
X149438582Y-98697597D01*
X149443541Y-98711457D01*
X149447118Y-98725736D01*
X149449278Y-98740297D01*
X149450000Y-98755000D01*
X149450000Y-99055000D01*
X149449278Y-99069703D01*
X149447118Y-99084264D01*
X149443541Y-99098543D01*
X149438582Y-99112403D01*
X149432288Y-99125710D01*
X149424720Y-99138336D01*
X149415952Y-99150159D01*
X149406066Y-99161066D01*
X149395159Y-99170952D01*
X149383336Y-99179720D01*
X149370710Y-99187288D01*
X149357403Y-99193582D01*
X149343543Y-99198541D01*
X149329264Y-99202118D01*
X149314703Y-99204278D01*
X149300000Y-99205000D01*
X147650000Y-99205000D01*
X147635297Y-99204278D01*
X147620736Y-99202118D01*
X147606457Y-99198541D01*
X147592597Y-99193582D01*
X147579290Y-99187288D01*
X147566664Y-99179720D01*
X147554841Y-99170952D01*
X147543934Y-99161066D01*
X147534048Y-99150159D01*
X147525280Y-99138336D01*
X147517712Y-99125710D01*
X147511418Y-99112403D01*
X147506459Y-99098543D01*
X147502882Y-99084264D01*
X147500722Y-99069703D01*
X147500000Y-99055000D01*
X147500000Y-98755000D01*
X147500722Y-98740297D01*
X147502882Y-98725736D01*
X147506459Y-98711457D01*
X147511418Y-98697597D01*
X147517712Y-98684290D01*
X147525280Y-98671664D01*
X147534048Y-98659841D01*
X147543934Y-98648934D01*
X147554841Y-98639048D01*
X147566664Y-98630280D01*
X147579290Y-98622712D01*
X147592597Y-98616418D01*
X147606457Y-98611459D01*
X147620736Y-98607882D01*
X147635297Y-98605722D01*
X147650000Y-98605000D01*
X149300000Y-98605000D01*
X149314703Y-98605722D01*
X149314703Y-98605722D01*
G37*
D11*
X148475000Y-98905000D03*
D10*
G36*
X144364703Y-98605722D02*
G01*
X144379264Y-98607882D01*
X144393543Y-98611459D01*
X144407403Y-98616418D01*
X144420710Y-98622712D01*
X144433336Y-98630280D01*
X144445159Y-98639048D01*
X144456066Y-98648934D01*
X144465952Y-98659841D01*
X144474720Y-98671664D01*
X144482288Y-98684290D01*
X144488582Y-98697597D01*
X144493541Y-98711457D01*
X144497118Y-98725736D01*
X144499278Y-98740297D01*
X144500000Y-98755000D01*
X144500000Y-99055000D01*
X144499278Y-99069703D01*
X144497118Y-99084264D01*
X144493541Y-99098543D01*
X144488582Y-99112403D01*
X144482288Y-99125710D01*
X144474720Y-99138336D01*
X144465952Y-99150159D01*
X144456066Y-99161066D01*
X144445159Y-99170952D01*
X144433336Y-99179720D01*
X144420710Y-99187288D01*
X144407403Y-99193582D01*
X144393543Y-99198541D01*
X144379264Y-99202118D01*
X144364703Y-99204278D01*
X144350000Y-99205000D01*
X142700000Y-99205000D01*
X142685297Y-99204278D01*
X142670736Y-99202118D01*
X142656457Y-99198541D01*
X142642597Y-99193582D01*
X142629290Y-99187288D01*
X142616664Y-99179720D01*
X142604841Y-99170952D01*
X142593934Y-99161066D01*
X142584048Y-99150159D01*
X142575280Y-99138336D01*
X142567712Y-99125710D01*
X142561418Y-99112403D01*
X142556459Y-99098543D01*
X142552882Y-99084264D01*
X142550722Y-99069703D01*
X142550000Y-99055000D01*
X142550000Y-98755000D01*
X142550722Y-98740297D01*
X142552882Y-98725736D01*
X142556459Y-98711457D01*
X142561418Y-98697597D01*
X142567712Y-98684290D01*
X142575280Y-98671664D01*
X142584048Y-98659841D01*
X142593934Y-98648934D01*
X142604841Y-98639048D01*
X142616664Y-98630280D01*
X142629290Y-98622712D01*
X142642597Y-98616418D01*
X142656457Y-98611459D01*
X142670736Y-98607882D01*
X142685297Y-98605722D01*
X142700000Y-98605000D01*
X144350000Y-98605000D01*
X144364703Y-98605722D01*
X144364703Y-98605722D01*
G37*
D11*
X143525000Y-98905000D03*
D10*
G36*
X144364703Y-97335722D02*
G01*
X144379264Y-97337882D01*
X144393543Y-97341459D01*
X144407403Y-97346418D01*
X144420710Y-97352712D01*
X144433336Y-97360280D01*
X144445159Y-97369048D01*
X144456066Y-97378934D01*
X144465952Y-97389841D01*
X144474720Y-97401664D01*
X144482288Y-97414290D01*
X144488582Y-97427597D01*
X144493541Y-97441457D01*
X144497118Y-97455736D01*
X144499278Y-97470297D01*
X144500000Y-97485000D01*
X144500000Y-97785000D01*
X144499278Y-97799703D01*
X144497118Y-97814264D01*
X144493541Y-97828543D01*
X144488582Y-97842403D01*
X144482288Y-97855710D01*
X144474720Y-97868336D01*
X144465952Y-97880159D01*
X144456066Y-97891066D01*
X144445159Y-97900952D01*
X144433336Y-97909720D01*
X144420710Y-97917288D01*
X144407403Y-97923582D01*
X144393543Y-97928541D01*
X144379264Y-97932118D01*
X144364703Y-97934278D01*
X144350000Y-97935000D01*
X142700000Y-97935000D01*
X142685297Y-97934278D01*
X142670736Y-97932118D01*
X142656457Y-97928541D01*
X142642597Y-97923582D01*
X142629290Y-97917288D01*
X142616664Y-97909720D01*
X142604841Y-97900952D01*
X142593934Y-97891066D01*
X142584048Y-97880159D01*
X142575280Y-97868336D01*
X142567712Y-97855710D01*
X142561418Y-97842403D01*
X142556459Y-97828543D01*
X142552882Y-97814264D01*
X142550722Y-97799703D01*
X142550000Y-97785000D01*
X142550000Y-97485000D01*
X142550722Y-97470297D01*
X142552882Y-97455736D01*
X142556459Y-97441457D01*
X142561418Y-97427597D01*
X142567712Y-97414290D01*
X142575280Y-97401664D01*
X142584048Y-97389841D01*
X142593934Y-97378934D01*
X142604841Y-97369048D01*
X142616664Y-97360280D01*
X142629290Y-97352712D01*
X142642597Y-97346418D01*
X142656457Y-97341459D01*
X142670736Y-97337882D01*
X142685297Y-97335722D01*
X142700000Y-97335000D01*
X144350000Y-97335000D01*
X144364703Y-97335722D01*
X144364703Y-97335722D01*
G37*
D11*
X143525000Y-97635000D03*
D10*
G36*
X144364703Y-96065722D02*
G01*
X144379264Y-96067882D01*
X144393543Y-96071459D01*
X144407403Y-96076418D01*
X144420710Y-96082712D01*
X144433336Y-96090280D01*
X144445159Y-96099048D01*
X144456066Y-96108934D01*
X144465952Y-96119841D01*
X144474720Y-96131664D01*
X144482288Y-96144290D01*
X144488582Y-96157597D01*
X144493541Y-96171457D01*
X144497118Y-96185736D01*
X144499278Y-96200297D01*
X144500000Y-96215000D01*
X144500000Y-96515000D01*
X144499278Y-96529703D01*
X144497118Y-96544264D01*
X144493541Y-96558543D01*
X144488582Y-96572403D01*
X144482288Y-96585710D01*
X144474720Y-96598336D01*
X144465952Y-96610159D01*
X144456066Y-96621066D01*
X144445159Y-96630952D01*
X144433336Y-96639720D01*
X144420710Y-96647288D01*
X144407403Y-96653582D01*
X144393543Y-96658541D01*
X144379264Y-96662118D01*
X144364703Y-96664278D01*
X144350000Y-96665000D01*
X142700000Y-96665000D01*
X142685297Y-96664278D01*
X142670736Y-96662118D01*
X142656457Y-96658541D01*
X142642597Y-96653582D01*
X142629290Y-96647288D01*
X142616664Y-96639720D01*
X142604841Y-96630952D01*
X142593934Y-96621066D01*
X142584048Y-96610159D01*
X142575280Y-96598336D01*
X142567712Y-96585710D01*
X142561418Y-96572403D01*
X142556459Y-96558543D01*
X142552882Y-96544264D01*
X142550722Y-96529703D01*
X142550000Y-96515000D01*
X142550000Y-96215000D01*
X142550722Y-96200297D01*
X142552882Y-96185736D01*
X142556459Y-96171457D01*
X142561418Y-96157597D01*
X142567712Y-96144290D01*
X142575280Y-96131664D01*
X142584048Y-96119841D01*
X142593934Y-96108934D01*
X142604841Y-96099048D01*
X142616664Y-96090280D01*
X142629290Y-96082712D01*
X142642597Y-96076418D01*
X142656457Y-96071459D01*
X142670736Y-96067882D01*
X142685297Y-96065722D01*
X142700000Y-96065000D01*
X144350000Y-96065000D01*
X144364703Y-96065722D01*
X144364703Y-96065722D01*
G37*
D11*
X143525000Y-96365000D03*
D10*
G36*
X144364703Y-94795722D02*
G01*
X144379264Y-94797882D01*
X144393543Y-94801459D01*
X144407403Y-94806418D01*
X144420710Y-94812712D01*
X144433336Y-94820280D01*
X144445159Y-94829048D01*
X144456066Y-94838934D01*
X144465952Y-94849841D01*
X144474720Y-94861664D01*
X144482288Y-94874290D01*
X144488582Y-94887597D01*
X144493541Y-94901457D01*
X144497118Y-94915736D01*
X144499278Y-94930297D01*
X144500000Y-94945000D01*
X144500000Y-95245000D01*
X144499278Y-95259703D01*
X144497118Y-95274264D01*
X144493541Y-95288543D01*
X144488582Y-95302403D01*
X144482288Y-95315710D01*
X144474720Y-95328336D01*
X144465952Y-95340159D01*
X144456066Y-95351066D01*
X144445159Y-95360952D01*
X144433336Y-95369720D01*
X144420710Y-95377288D01*
X144407403Y-95383582D01*
X144393543Y-95388541D01*
X144379264Y-95392118D01*
X144364703Y-95394278D01*
X144350000Y-95395000D01*
X142700000Y-95395000D01*
X142685297Y-95394278D01*
X142670736Y-95392118D01*
X142656457Y-95388541D01*
X142642597Y-95383582D01*
X142629290Y-95377288D01*
X142616664Y-95369720D01*
X142604841Y-95360952D01*
X142593934Y-95351066D01*
X142584048Y-95340159D01*
X142575280Y-95328336D01*
X142567712Y-95315710D01*
X142561418Y-95302403D01*
X142556459Y-95288543D01*
X142552882Y-95274264D01*
X142550722Y-95259703D01*
X142550000Y-95245000D01*
X142550000Y-94945000D01*
X142550722Y-94930297D01*
X142552882Y-94915736D01*
X142556459Y-94901457D01*
X142561418Y-94887597D01*
X142567712Y-94874290D01*
X142575280Y-94861664D01*
X142584048Y-94849841D01*
X142593934Y-94838934D01*
X142604841Y-94829048D01*
X142616664Y-94820280D01*
X142629290Y-94812712D01*
X142642597Y-94806418D01*
X142656457Y-94801459D01*
X142670736Y-94797882D01*
X142685297Y-94795722D01*
X142700000Y-94795000D01*
X144350000Y-94795000D01*
X144364703Y-94795722D01*
X144364703Y-94795722D01*
G37*
D11*
X143525000Y-95095000D03*
D10*
G36*
X139474505Y-98451204D02*
G01*
X139498773Y-98454804D01*
X139522572Y-98460765D01*
X139545671Y-98469030D01*
X139567850Y-98479520D01*
X139588893Y-98492132D01*
X139608599Y-98506747D01*
X139626777Y-98523223D01*
X139643253Y-98541401D01*
X139657868Y-98561107D01*
X139670480Y-98582150D01*
X139680970Y-98604329D01*
X139689235Y-98627428D01*
X139695196Y-98651227D01*
X139698796Y-98675495D01*
X139700000Y-98699999D01*
X139700000Y-99350001D01*
X139698796Y-99374505D01*
X139695196Y-99398773D01*
X139689235Y-99422572D01*
X139680970Y-99445671D01*
X139670480Y-99467850D01*
X139657868Y-99488893D01*
X139643253Y-99508599D01*
X139626777Y-99526777D01*
X139608599Y-99543253D01*
X139588893Y-99557868D01*
X139567850Y-99570480D01*
X139545671Y-99580970D01*
X139522572Y-99589235D01*
X139498773Y-99595196D01*
X139474505Y-99598796D01*
X139450001Y-99600000D01*
X138549999Y-99600000D01*
X138525495Y-99598796D01*
X138501227Y-99595196D01*
X138477428Y-99589235D01*
X138454329Y-99580970D01*
X138432150Y-99570480D01*
X138411107Y-99557868D01*
X138391401Y-99543253D01*
X138373223Y-99526777D01*
X138356747Y-99508599D01*
X138342132Y-99488893D01*
X138329520Y-99467850D01*
X138319030Y-99445671D01*
X138310765Y-99422572D01*
X138304804Y-99398773D01*
X138301204Y-99374505D01*
X138300000Y-99350001D01*
X138300000Y-98699999D01*
X138301204Y-98675495D01*
X138304804Y-98651227D01*
X138310765Y-98627428D01*
X138319030Y-98604329D01*
X138329520Y-98582150D01*
X138342132Y-98561107D01*
X138356747Y-98541401D01*
X138373223Y-98523223D01*
X138391401Y-98506747D01*
X138411107Y-98492132D01*
X138432150Y-98479520D01*
X138454329Y-98469030D01*
X138477428Y-98460765D01*
X138501227Y-98454804D01*
X138525495Y-98451204D01*
X138549999Y-98450000D01*
X139450001Y-98450000D01*
X139474505Y-98451204D01*
X139474505Y-98451204D01*
G37*
D12*
X139000000Y-99025000D03*
D10*
G36*
X139474505Y-96401204D02*
G01*
X139498773Y-96404804D01*
X139522572Y-96410765D01*
X139545671Y-96419030D01*
X139567850Y-96429520D01*
X139588893Y-96442132D01*
X139608599Y-96456747D01*
X139626777Y-96473223D01*
X139643253Y-96491401D01*
X139657868Y-96511107D01*
X139670480Y-96532150D01*
X139680970Y-96554329D01*
X139689235Y-96577428D01*
X139695196Y-96601227D01*
X139698796Y-96625495D01*
X139700000Y-96649999D01*
X139700000Y-97300001D01*
X139698796Y-97324505D01*
X139695196Y-97348773D01*
X139689235Y-97372572D01*
X139680970Y-97395671D01*
X139670480Y-97417850D01*
X139657868Y-97438893D01*
X139643253Y-97458599D01*
X139626777Y-97476777D01*
X139608599Y-97493253D01*
X139588893Y-97507868D01*
X139567850Y-97520480D01*
X139545671Y-97530970D01*
X139522572Y-97539235D01*
X139498773Y-97545196D01*
X139474505Y-97548796D01*
X139450001Y-97550000D01*
X138549999Y-97550000D01*
X138525495Y-97548796D01*
X138501227Y-97545196D01*
X138477428Y-97539235D01*
X138454329Y-97530970D01*
X138432150Y-97520480D01*
X138411107Y-97507868D01*
X138391401Y-97493253D01*
X138373223Y-97476777D01*
X138356747Y-97458599D01*
X138342132Y-97438893D01*
X138329520Y-97417850D01*
X138319030Y-97395671D01*
X138310765Y-97372572D01*
X138304804Y-97348773D01*
X138301204Y-97324505D01*
X138300000Y-97300001D01*
X138300000Y-96649999D01*
X138301204Y-96625495D01*
X138304804Y-96601227D01*
X138310765Y-96577428D01*
X138319030Y-96554329D01*
X138329520Y-96532150D01*
X138342132Y-96511107D01*
X138356747Y-96491401D01*
X138373223Y-96473223D01*
X138391401Y-96456747D01*
X138411107Y-96442132D01*
X138432150Y-96429520D01*
X138454329Y-96419030D01*
X138477428Y-96410765D01*
X138501227Y-96404804D01*
X138525495Y-96401204D01*
X138549999Y-96400000D01*
X139450001Y-96400000D01*
X139474505Y-96401204D01*
X139474505Y-96401204D01*
G37*
D12*
X139000000Y-96975000D03*
D10*
G36*
X153474505Y-100951204D02*
G01*
X153498773Y-100954804D01*
X153522572Y-100960765D01*
X153545671Y-100969030D01*
X153567850Y-100979520D01*
X153588893Y-100992132D01*
X153608599Y-101006747D01*
X153626777Y-101023223D01*
X153643253Y-101041401D01*
X153657868Y-101061107D01*
X153670480Y-101082150D01*
X153680970Y-101104329D01*
X153689235Y-101127428D01*
X153695196Y-101151227D01*
X153698796Y-101175495D01*
X153700000Y-101199999D01*
X153700000Y-101850001D01*
X153698796Y-101874505D01*
X153695196Y-101898773D01*
X153689235Y-101922572D01*
X153680970Y-101945671D01*
X153670480Y-101967850D01*
X153657868Y-101988893D01*
X153643253Y-102008599D01*
X153626777Y-102026777D01*
X153608599Y-102043253D01*
X153588893Y-102057868D01*
X153567850Y-102070480D01*
X153545671Y-102080970D01*
X153522572Y-102089235D01*
X153498773Y-102095196D01*
X153474505Y-102098796D01*
X153450001Y-102100000D01*
X152549999Y-102100000D01*
X152525495Y-102098796D01*
X152501227Y-102095196D01*
X152477428Y-102089235D01*
X152454329Y-102080970D01*
X152432150Y-102070480D01*
X152411107Y-102057868D01*
X152391401Y-102043253D01*
X152373223Y-102026777D01*
X152356747Y-102008599D01*
X152342132Y-101988893D01*
X152329520Y-101967850D01*
X152319030Y-101945671D01*
X152310765Y-101922572D01*
X152304804Y-101898773D01*
X152301204Y-101874505D01*
X152300000Y-101850001D01*
X152300000Y-101199999D01*
X152301204Y-101175495D01*
X152304804Y-101151227D01*
X152310765Y-101127428D01*
X152319030Y-101104329D01*
X152329520Y-101082150D01*
X152342132Y-101061107D01*
X152356747Y-101041401D01*
X152373223Y-101023223D01*
X152391401Y-101006747D01*
X152411107Y-100992132D01*
X152432150Y-100979520D01*
X152454329Y-100969030D01*
X152477428Y-100960765D01*
X152501227Y-100954804D01*
X152525495Y-100951204D01*
X152549999Y-100950000D01*
X153450001Y-100950000D01*
X153474505Y-100951204D01*
X153474505Y-100951204D01*
G37*
D12*
X153000000Y-101525000D03*
D10*
G36*
X153474505Y-98901204D02*
G01*
X153498773Y-98904804D01*
X153522572Y-98910765D01*
X153545671Y-98919030D01*
X153567850Y-98929520D01*
X153588893Y-98942132D01*
X153608599Y-98956747D01*
X153626777Y-98973223D01*
X153643253Y-98991401D01*
X153657868Y-99011107D01*
X153670480Y-99032150D01*
X153680970Y-99054329D01*
X153689235Y-99077428D01*
X153695196Y-99101227D01*
X153698796Y-99125495D01*
X153700000Y-99149999D01*
X153700000Y-99800001D01*
X153698796Y-99824505D01*
X153695196Y-99848773D01*
X153689235Y-99872572D01*
X153680970Y-99895671D01*
X153670480Y-99917850D01*
X153657868Y-99938893D01*
X153643253Y-99958599D01*
X153626777Y-99976777D01*
X153608599Y-99993253D01*
X153588893Y-100007868D01*
X153567850Y-100020480D01*
X153545671Y-100030970D01*
X153522572Y-100039235D01*
X153498773Y-100045196D01*
X153474505Y-100048796D01*
X153450001Y-100050000D01*
X152549999Y-100050000D01*
X152525495Y-100048796D01*
X152501227Y-100045196D01*
X152477428Y-100039235D01*
X152454329Y-100030970D01*
X152432150Y-100020480D01*
X152411107Y-100007868D01*
X152391401Y-99993253D01*
X152373223Y-99976777D01*
X152356747Y-99958599D01*
X152342132Y-99938893D01*
X152329520Y-99917850D01*
X152319030Y-99895671D01*
X152310765Y-99872572D01*
X152304804Y-99848773D01*
X152301204Y-99824505D01*
X152300000Y-99800001D01*
X152300000Y-99149999D01*
X152301204Y-99125495D01*
X152304804Y-99101227D01*
X152310765Y-99077428D01*
X152319030Y-99054329D01*
X152329520Y-99032150D01*
X152342132Y-99011107D01*
X152356747Y-98991401D01*
X152373223Y-98973223D01*
X152391401Y-98956747D01*
X152411107Y-98942132D01*
X152432150Y-98929520D01*
X152454329Y-98919030D01*
X152477428Y-98910765D01*
X152501227Y-98904804D01*
X152525495Y-98901204D01*
X152549999Y-98900000D01*
X153450001Y-98900000D01*
X153474505Y-98901204D01*
X153474505Y-98901204D01*
G37*
D12*
X153000000Y-99475000D03*
D10*
G36*
X153474505Y-95451204D02*
G01*
X153498773Y-95454804D01*
X153522572Y-95460765D01*
X153545671Y-95469030D01*
X153567850Y-95479520D01*
X153588893Y-95492132D01*
X153608599Y-95506747D01*
X153626777Y-95523223D01*
X153643253Y-95541401D01*
X153657868Y-95561107D01*
X153670480Y-95582150D01*
X153680970Y-95604329D01*
X153689235Y-95627428D01*
X153695196Y-95651227D01*
X153698796Y-95675495D01*
X153700000Y-95699999D01*
X153700000Y-96350001D01*
X153698796Y-96374505D01*
X153695196Y-96398773D01*
X153689235Y-96422572D01*
X153680970Y-96445671D01*
X153670480Y-96467850D01*
X153657868Y-96488893D01*
X153643253Y-96508599D01*
X153626777Y-96526777D01*
X153608599Y-96543253D01*
X153588893Y-96557868D01*
X153567850Y-96570480D01*
X153545671Y-96580970D01*
X153522572Y-96589235D01*
X153498773Y-96595196D01*
X153474505Y-96598796D01*
X153450001Y-96600000D01*
X152549999Y-96600000D01*
X152525495Y-96598796D01*
X152501227Y-96595196D01*
X152477428Y-96589235D01*
X152454329Y-96580970D01*
X152432150Y-96570480D01*
X152411107Y-96557868D01*
X152391401Y-96543253D01*
X152373223Y-96526777D01*
X152356747Y-96508599D01*
X152342132Y-96488893D01*
X152329520Y-96467850D01*
X152319030Y-96445671D01*
X152310765Y-96422572D01*
X152304804Y-96398773D01*
X152301204Y-96374505D01*
X152300000Y-96350001D01*
X152300000Y-95699999D01*
X152301204Y-95675495D01*
X152304804Y-95651227D01*
X152310765Y-95627428D01*
X152319030Y-95604329D01*
X152329520Y-95582150D01*
X152342132Y-95561107D01*
X152356747Y-95541401D01*
X152373223Y-95523223D01*
X152391401Y-95506747D01*
X152411107Y-95492132D01*
X152432150Y-95479520D01*
X152454329Y-95469030D01*
X152477428Y-95460765D01*
X152501227Y-95454804D01*
X152525495Y-95451204D01*
X152549999Y-95450000D01*
X153450001Y-95450000D01*
X153474505Y-95451204D01*
X153474505Y-95451204D01*
G37*
D12*
X153000000Y-96025000D03*
D10*
G36*
X153474505Y-93401204D02*
G01*
X153498773Y-93404804D01*
X153522572Y-93410765D01*
X153545671Y-93419030D01*
X153567850Y-93429520D01*
X153588893Y-93442132D01*
X153608599Y-93456747D01*
X153626777Y-93473223D01*
X153643253Y-93491401D01*
X153657868Y-93511107D01*
X153670480Y-93532150D01*
X153680970Y-93554329D01*
X153689235Y-93577428D01*
X153695196Y-93601227D01*
X153698796Y-93625495D01*
X153700000Y-93649999D01*
X153700000Y-94300001D01*
X153698796Y-94324505D01*
X153695196Y-94348773D01*
X153689235Y-94372572D01*
X153680970Y-94395671D01*
X153670480Y-94417850D01*
X153657868Y-94438893D01*
X153643253Y-94458599D01*
X153626777Y-94476777D01*
X153608599Y-94493253D01*
X153588893Y-94507868D01*
X153567850Y-94520480D01*
X153545671Y-94530970D01*
X153522572Y-94539235D01*
X153498773Y-94545196D01*
X153474505Y-94548796D01*
X153450001Y-94550000D01*
X152549999Y-94550000D01*
X152525495Y-94548796D01*
X152501227Y-94545196D01*
X152477428Y-94539235D01*
X152454329Y-94530970D01*
X152432150Y-94520480D01*
X152411107Y-94507868D01*
X152391401Y-94493253D01*
X152373223Y-94476777D01*
X152356747Y-94458599D01*
X152342132Y-94438893D01*
X152329520Y-94417850D01*
X152319030Y-94395671D01*
X152310765Y-94372572D01*
X152304804Y-94348773D01*
X152301204Y-94324505D01*
X152300000Y-94300001D01*
X152300000Y-93649999D01*
X152301204Y-93625495D01*
X152304804Y-93601227D01*
X152310765Y-93577428D01*
X152319030Y-93554329D01*
X152329520Y-93532150D01*
X152342132Y-93511107D01*
X152356747Y-93491401D01*
X152373223Y-93473223D01*
X152391401Y-93456747D01*
X152411107Y-93442132D01*
X152432150Y-93429520D01*
X152454329Y-93419030D01*
X152477428Y-93410765D01*
X152501227Y-93404804D01*
X152525495Y-93401204D01*
X152549999Y-93400000D01*
X153450001Y-93400000D01*
X153474505Y-93401204D01*
X153474505Y-93401204D01*
G37*
D12*
X153000000Y-93975000D03*
D10*
G36*
X139474505Y-100901204D02*
G01*
X139498773Y-100904804D01*
X139522572Y-100910765D01*
X139545671Y-100919030D01*
X139567850Y-100929520D01*
X139588893Y-100942132D01*
X139608599Y-100956747D01*
X139626777Y-100973223D01*
X139643253Y-100991401D01*
X139657868Y-101011107D01*
X139670480Y-101032150D01*
X139680970Y-101054329D01*
X139689235Y-101077428D01*
X139695196Y-101101227D01*
X139698796Y-101125495D01*
X139700000Y-101149999D01*
X139700000Y-101800001D01*
X139698796Y-101824505D01*
X139695196Y-101848773D01*
X139689235Y-101872572D01*
X139680970Y-101895671D01*
X139670480Y-101917850D01*
X139657868Y-101938893D01*
X139643253Y-101958599D01*
X139626777Y-101976777D01*
X139608599Y-101993253D01*
X139588893Y-102007868D01*
X139567850Y-102020480D01*
X139545671Y-102030970D01*
X139522572Y-102039235D01*
X139498773Y-102045196D01*
X139474505Y-102048796D01*
X139450001Y-102050000D01*
X138549999Y-102050000D01*
X138525495Y-102048796D01*
X138501227Y-102045196D01*
X138477428Y-102039235D01*
X138454329Y-102030970D01*
X138432150Y-102020480D01*
X138411107Y-102007868D01*
X138391401Y-101993253D01*
X138373223Y-101976777D01*
X138356747Y-101958599D01*
X138342132Y-101938893D01*
X138329520Y-101917850D01*
X138319030Y-101895671D01*
X138310765Y-101872572D01*
X138304804Y-101848773D01*
X138301204Y-101824505D01*
X138300000Y-101800001D01*
X138300000Y-101149999D01*
X138301204Y-101125495D01*
X138304804Y-101101227D01*
X138310765Y-101077428D01*
X138319030Y-101054329D01*
X138329520Y-101032150D01*
X138342132Y-101011107D01*
X138356747Y-100991401D01*
X138373223Y-100973223D01*
X138391401Y-100956747D01*
X138411107Y-100942132D01*
X138432150Y-100929520D01*
X138454329Y-100919030D01*
X138477428Y-100910765D01*
X138501227Y-100904804D01*
X138525495Y-100901204D01*
X138549999Y-100900000D01*
X139450001Y-100900000D01*
X139474505Y-100901204D01*
X139474505Y-100901204D01*
G37*
D12*
X139000000Y-101475000D03*
D10*
G36*
X139474505Y-102951204D02*
G01*
X139498773Y-102954804D01*
X139522572Y-102960765D01*
X139545671Y-102969030D01*
X139567850Y-102979520D01*
X139588893Y-102992132D01*
X139608599Y-103006747D01*
X139626777Y-103023223D01*
X139643253Y-103041401D01*
X139657868Y-103061107D01*
X139670480Y-103082150D01*
X139680970Y-103104329D01*
X139689235Y-103127428D01*
X139695196Y-103151227D01*
X139698796Y-103175495D01*
X139700000Y-103199999D01*
X139700000Y-103850001D01*
X139698796Y-103874505D01*
X139695196Y-103898773D01*
X139689235Y-103922572D01*
X139680970Y-103945671D01*
X139670480Y-103967850D01*
X139657868Y-103988893D01*
X139643253Y-104008599D01*
X139626777Y-104026777D01*
X139608599Y-104043253D01*
X139588893Y-104057868D01*
X139567850Y-104070480D01*
X139545671Y-104080970D01*
X139522572Y-104089235D01*
X139498773Y-104095196D01*
X139474505Y-104098796D01*
X139450001Y-104100000D01*
X138549999Y-104100000D01*
X138525495Y-104098796D01*
X138501227Y-104095196D01*
X138477428Y-104089235D01*
X138454329Y-104080970D01*
X138432150Y-104070480D01*
X138411107Y-104057868D01*
X138391401Y-104043253D01*
X138373223Y-104026777D01*
X138356747Y-104008599D01*
X138342132Y-103988893D01*
X138329520Y-103967850D01*
X138319030Y-103945671D01*
X138310765Y-103922572D01*
X138304804Y-103898773D01*
X138301204Y-103874505D01*
X138300000Y-103850001D01*
X138300000Y-103199999D01*
X138301204Y-103175495D01*
X138304804Y-103151227D01*
X138310765Y-103127428D01*
X138319030Y-103104329D01*
X138329520Y-103082150D01*
X138342132Y-103061107D01*
X138356747Y-103041401D01*
X138373223Y-103023223D01*
X138391401Y-103006747D01*
X138411107Y-102992132D01*
X138432150Y-102979520D01*
X138454329Y-102969030D01*
X138477428Y-102960765D01*
X138501227Y-102954804D01*
X138525495Y-102951204D01*
X138549999Y-102950000D01*
X139450001Y-102950000D01*
X139474505Y-102951204D01*
X139474505Y-102951204D01*
G37*
D12*
X139000000Y-103525000D03*
D10*
G36*
X139474505Y-91901204D02*
G01*
X139498773Y-91904804D01*
X139522572Y-91910765D01*
X139545671Y-91919030D01*
X139567850Y-91929520D01*
X139588893Y-91942132D01*
X139608599Y-91956747D01*
X139626777Y-91973223D01*
X139643253Y-91991401D01*
X139657868Y-92011107D01*
X139670480Y-92032150D01*
X139680970Y-92054329D01*
X139689235Y-92077428D01*
X139695196Y-92101227D01*
X139698796Y-92125495D01*
X139700000Y-92149999D01*
X139700000Y-92800001D01*
X139698796Y-92824505D01*
X139695196Y-92848773D01*
X139689235Y-92872572D01*
X139680970Y-92895671D01*
X139670480Y-92917850D01*
X139657868Y-92938893D01*
X139643253Y-92958599D01*
X139626777Y-92976777D01*
X139608599Y-92993253D01*
X139588893Y-93007868D01*
X139567850Y-93020480D01*
X139545671Y-93030970D01*
X139522572Y-93039235D01*
X139498773Y-93045196D01*
X139474505Y-93048796D01*
X139450001Y-93050000D01*
X138549999Y-93050000D01*
X138525495Y-93048796D01*
X138501227Y-93045196D01*
X138477428Y-93039235D01*
X138454329Y-93030970D01*
X138432150Y-93020480D01*
X138411107Y-93007868D01*
X138391401Y-92993253D01*
X138373223Y-92976777D01*
X138356747Y-92958599D01*
X138342132Y-92938893D01*
X138329520Y-92917850D01*
X138319030Y-92895671D01*
X138310765Y-92872572D01*
X138304804Y-92848773D01*
X138301204Y-92824505D01*
X138300000Y-92800001D01*
X138300000Y-92149999D01*
X138301204Y-92125495D01*
X138304804Y-92101227D01*
X138310765Y-92077428D01*
X138319030Y-92054329D01*
X138329520Y-92032150D01*
X138342132Y-92011107D01*
X138356747Y-91991401D01*
X138373223Y-91973223D01*
X138391401Y-91956747D01*
X138411107Y-91942132D01*
X138432150Y-91929520D01*
X138454329Y-91919030D01*
X138477428Y-91910765D01*
X138501227Y-91904804D01*
X138525495Y-91901204D01*
X138549999Y-91900000D01*
X139450001Y-91900000D01*
X139474505Y-91901204D01*
X139474505Y-91901204D01*
G37*
D12*
X139000000Y-92475000D03*
D10*
G36*
X139474505Y-93951204D02*
G01*
X139498773Y-93954804D01*
X139522572Y-93960765D01*
X139545671Y-93969030D01*
X139567850Y-93979520D01*
X139588893Y-93992132D01*
X139608599Y-94006747D01*
X139626777Y-94023223D01*
X139643253Y-94041401D01*
X139657868Y-94061107D01*
X139670480Y-94082150D01*
X139680970Y-94104329D01*
X139689235Y-94127428D01*
X139695196Y-94151227D01*
X139698796Y-94175495D01*
X139700000Y-94199999D01*
X139700000Y-94850001D01*
X139698796Y-94874505D01*
X139695196Y-94898773D01*
X139689235Y-94922572D01*
X139680970Y-94945671D01*
X139670480Y-94967850D01*
X139657868Y-94988893D01*
X139643253Y-95008599D01*
X139626777Y-95026777D01*
X139608599Y-95043253D01*
X139588893Y-95057868D01*
X139567850Y-95070480D01*
X139545671Y-95080970D01*
X139522572Y-95089235D01*
X139498773Y-95095196D01*
X139474505Y-95098796D01*
X139450001Y-95100000D01*
X138549999Y-95100000D01*
X138525495Y-95098796D01*
X138501227Y-95095196D01*
X138477428Y-95089235D01*
X138454329Y-95080970D01*
X138432150Y-95070480D01*
X138411107Y-95057868D01*
X138391401Y-95043253D01*
X138373223Y-95026777D01*
X138356747Y-95008599D01*
X138342132Y-94988893D01*
X138329520Y-94967850D01*
X138319030Y-94945671D01*
X138310765Y-94922572D01*
X138304804Y-94898773D01*
X138301204Y-94874505D01*
X138300000Y-94850001D01*
X138300000Y-94199999D01*
X138301204Y-94175495D01*
X138304804Y-94151227D01*
X138310765Y-94127428D01*
X138319030Y-94104329D01*
X138329520Y-94082150D01*
X138342132Y-94061107D01*
X138356747Y-94041401D01*
X138373223Y-94023223D01*
X138391401Y-94006747D01*
X138411107Y-93992132D01*
X138432150Y-93979520D01*
X138454329Y-93969030D01*
X138477428Y-93960765D01*
X138501227Y-93954804D01*
X138525495Y-93951204D01*
X138549999Y-93950000D01*
X139450001Y-93950000D01*
X139474505Y-93951204D01*
X139474505Y-93951204D01*
G37*
D12*
X139000000Y-94525000D03*
D13*
X139000000Y-105000000D03*
X139000000Y-91000000D03*
X143500000Y-93700000D03*
X133250000Y-93050000D03*
X158850000Y-93100000D03*
D14*
X139000000Y-103525000D02*
X139000000Y-105000000D01*
X139000000Y-92475000D02*
X139000000Y-91000000D01*
X143525000Y-95095000D02*
X143525000Y-93725000D01*
X143525000Y-93725000D02*
X143500000Y-93700000D01*
X139000000Y-99025000D02*
X139000000Y-101475000D01*
X142450000Y-97635000D02*
X143525000Y-97635000D01*
X140460000Y-97635000D02*
X142450000Y-97635000D01*
X139800000Y-96975000D02*
X140460000Y-97635000D01*
X139000000Y-96975000D02*
X139800000Y-96975000D01*
X151880000Y-95095000D02*
X153000000Y-93975000D01*
X148475000Y-95095000D02*
X151880000Y-95095000D01*
X139000000Y-94525000D02*
X140025000Y-94525000D01*
X141865000Y-96365000D02*
X143525000Y-96365000D01*
X140025000Y-94525000D02*
X141865000Y-96365000D01*
X152376628Y-100901628D02*
X153000000Y-101525000D01*
X149480710Y-98005710D02*
X152376628Y-100901628D01*
X148845710Y-98005710D02*
X149480710Y-98005710D01*
X148475000Y-97635000D02*
X148845710Y-98005710D01*
X146835000Y-97635000D02*
X148475000Y-97635000D01*
X143525000Y-96365000D02*
X145565000Y-96365000D01*
X145565000Y-96365000D02*
X146835000Y-97635000D01*
X148475000Y-96365000D02*
X150435000Y-96365000D01*
X150775000Y-96025000D02*
X153000000Y-96025000D01*
X150435000Y-96365000D02*
X150775000Y-96025000D01*
X153000000Y-96025000D02*
X153000000Y-99475000D01*
D15*
G36*
X161340000Y-111340000D02*
G01*
X130660000Y-111340000D01*
X130660000Y-92149999D01*
X137661928Y-92149999D01*
X137661928Y-92800001D01*
X137678992Y-92973255D01*
X137729528Y-93139851D01*
X137811595Y-93293387D01*
X137922038Y-93427962D01*
X138009816Y-93500000D01*
X137922038Y-93572038D01*
X137811595Y-93706613D01*
X137729528Y-93860149D01*
X137678992Y-94026745D01*
X137661928Y-94199999D01*
X137661928Y-94850001D01*
X137678992Y-95023255D01*
X137729528Y-95189851D01*
X137811595Y-95343387D01*
X137922038Y-95477962D01*
X138056613Y-95588405D01*
X138210149Y-95670472D01*
X138376745Y-95721008D01*
X138549999Y-95738072D01*
X139450001Y-95738072D01*
X139623255Y-95721008D01*
X139789851Y-95670472D01*
X139943387Y-95588405D01*
X139981953Y-95556754D01*
X141300198Y-96875000D01*
X140774802Y-96875000D01*
X140363803Y-96464002D01*
X140340001Y-96434999D01*
X140297852Y-96400408D01*
X140270472Y-96310149D01*
X140188405Y-96156613D01*
X140077962Y-96022038D01*
X139943387Y-95911595D01*
X139789851Y-95829528D01*
X139623255Y-95778992D01*
X139450001Y-95761928D01*
X138549999Y-95761928D01*
X138376745Y-95778992D01*
X138210149Y-95829528D01*
X138056613Y-95911595D01*
X137922038Y-96022038D01*
X137811595Y-96156613D01*
X137729528Y-96310149D01*
X137678992Y-96476745D01*
X137661928Y-96649999D01*
X137661928Y-97300001D01*
X137678992Y-97473255D01*
X137729528Y-97639851D01*
X137811595Y-97793387D01*
X137922038Y-97927962D01*
X138009816Y-98000000D01*
X137922038Y-98072038D01*
X137811595Y-98206613D01*
X137729528Y-98360149D01*
X137678992Y-98526745D01*
X137661928Y-98699999D01*
X137661928Y-99350001D01*
X137678992Y-99523255D01*
X137729528Y-99689851D01*
X137811595Y-99843387D01*
X137922038Y-99977962D01*
X138056613Y-100088405D01*
X138210149Y-100170472D01*
X138240000Y-100179527D01*
X138240001Y-100320473D01*
X138210149Y-100329528D01*
X138056613Y-100411595D01*
X137922038Y-100522038D01*
X137811595Y-100656613D01*
X137729528Y-100810149D01*
X137678992Y-100976745D01*
X137661928Y-101149999D01*
X137661928Y-101800001D01*
X137678992Y-101973255D01*
X137729528Y-102139851D01*
X137811595Y-102293387D01*
X137922038Y-102427962D01*
X138009816Y-102500000D01*
X137922038Y-102572038D01*
X137811595Y-102706613D01*
X137729528Y-102860149D01*
X137678992Y-103026745D01*
X137661928Y-103199999D01*
X137661928Y-103850001D01*
X137678992Y-104023255D01*
X137729528Y-104189851D01*
X137811595Y-104343387D01*
X137922038Y-104477962D01*
X138051836Y-104584485D01*
X138004774Y-104698102D01*
X137965000Y-104898061D01*
X137965000Y-105101939D01*
X138004774Y-105301898D01*
X138082795Y-105490256D01*
X138196063Y-105659774D01*
X138340226Y-105803937D01*
X138509744Y-105917205D01*
X138698102Y-105995226D01*
X138898061Y-106035000D01*
X139101939Y-106035000D01*
X139301898Y-105995226D01*
X139490256Y-105917205D01*
X139659774Y-105803937D01*
X139803937Y-105659774D01*
X139917205Y-105490256D01*
X139995226Y-105301898D01*
X140035000Y-105101939D01*
X140035000Y-104898061D01*
X139995226Y-104698102D01*
X139948164Y-104584485D01*
X140077962Y-104477962D01*
X140188405Y-104343387D01*
X140270472Y-104189851D01*
X140321008Y-104023255D01*
X140338072Y-103850001D01*
X140338072Y-103199999D01*
X140321008Y-103026745D01*
X140270472Y-102860149D01*
X140188405Y-102706613D01*
X140077962Y-102572038D01*
X139990184Y-102500000D01*
X140077962Y-102427962D01*
X140188405Y-102293387D01*
X140270472Y-102139851D01*
X140321008Y-101973255D01*
X140338072Y-101800001D01*
X140338072Y-101149999D01*
X140321008Y-100976745D01*
X140270472Y-100810149D01*
X140188405Y-100656613D01*
X140077962Y-100522038D01*
X139943387Y-100411595D01*
X139789851Y-100329528D01*
X139760000Y-100320473D01*
X139760000Y-100179527D01*
X139789851Y-100170472D01*
X139943387Y-100088405D01*
X140077962Y-99977962D01*
X140188405Y-99843387D01*
X140270472Y-99689851D01*
X140321008Y-99523255D01*
X140338072Y-99350001D01*
X140338072Y-99205000D01*
X141911928Y-99205000D01*
X141924188Y-99329482D01*
X141960498Y-99449180D01*
X142019463Y-99559494D01*
X142098815Y-99656185D01*
X142195506Y-99735537D01*
X142305820Y-99794502D01*
X142425518Y-99830812D01*
X142550000Y-99843072D01*
X143239250Y-99840000D01*
X143398000Y-99681250D01*
X143398000Y-99032000D01*
X143652000Y-99032000D01*
X143652000Y-99681250D01*
X143810750Y-99840000D01*
X144500000Y-99843072D01*
X144624482Y-99830812D01*
X144744180Y-99794502D01*
X144854494Y-99735537D01*
X144951185Y-99656185D01*
X145030537Y-99559494D01*
X145089502Y-99449180D01*
X145125812Y-99329482D01*
X145138072Y-99205000D01*
X145135000Y-99190750D01*
X144976250Y-99032000D01*
X143652000Y-99032000D01*
X143398000Y-99032000D01*
X142073750Y-99032000D01*
X141915000Y-99190750D01*
X141911928Y-99205000D01*
X140338072Y-99205000D01*
X140338072Y-98699999D01*
X140321008Y-98526745D01*
X140274333Y-98372876D01*
X140311014Y-98384003D01*
X140422667Y-98395000D01*
X140422677Y-98395000D01*
X140460000Y-98398676D01*
X140497323Y-98395000D01*
X141950130Y-98395000D01*
X141924188Y-98480518D01*
X141911928Y-98605000D01*
X141915000Y-98619250D01*
X142073750Y-98778000D01*
X143398000Y-98778000D01*
X143398000Y-98758000D01*
X143652000Y-98758000D01*
X143652000Y-98778000D01*
X144976250Y-98778000D01*
X145135000Y-98619250D01*
X145138072Y-98605000D01*
X145125812Y-98480518D01*
X145089502Y-98360820D01*
X145030537Y-98250506D01*
X145006270Y-98220936D01*
X145078084Y-98086582D01*
X145122929Y-97938745D01*
X145138072Y-97785000D01*
X145138072Y-97485000D01*
X145122929Y-97331255D01*
X145078084Y-97183418D01*
X145046859Y-97125000D01*
X145250199Y-97125000D01*
X146271200Y-98146002D01*
X146294999Y-98175001D01*
X146410724Y-98269974D01*
X146542753Y-98340546D01*
X146686014Y-98384003D01*
X146797667Y-98395000D01*
X146797676Y-98395000D01*
X146834999Y-98398676D01*
X146872322Y-98395000D01*
X146953141Y-98395000D01*
X146921916Y-98453418D01*
X146877071Y-98601255D01*
X146861928Y-98755000D01*
X146861928Y-99055000D01*
X146877071Y-99208745D01*
X146921916Y-99356582D01*
X146994742Y-99492829D01*
X147092749Y-99612251D01*
X147212171Y-99710258D01*
X147348418Y-99783084D01*
X147496255Y-99827929D01*
X147650000Y-99843072D01*
X149300000Y-99843072D01*
X149453745Y-99827929D01*
X149601582Y-99783084D01*
X149737829Y-99710258D01*
X149857251Y-99612251D01*
X149927207Y-99527009D01*
X151661928Y-101261730D01*
X151661928Y-101850001D01*
X151678992Y-102023255D01*
X151729528Y-102189851D01*
X151811595Y-102343387D01*
X151922038Y-102477962D01*
X152056613Y-102588405D01*
X152210149Y-102670472D01*
X152376745Y-102721008D01*
X152549999Y-102738072D01*
X153450001Y-102738072D01*
X153623255Y-102721008D01*
X153789851Y-102670472D01*
X153943387Y-102588405D01*
X154077962Y-102477962D01*
X154188405Y-102343387D01*
X154270472Y-102189851D01*
X154321008Y-102023255D01*
X154338072Y-101850001D01*
X154338072Y-101199999D01*
X154321008Y-101026745D01*
X154270472Y-100860149D01*
X154188405Y-100706613D01*
X154077962Y-100572038D01*
X153990184Y-100500000D01*
X154077962Y-100427962D01*
X154188405Y-100293387D01*
X154270472Y-100139851D01*
X154321008Y-99973255D01*
X154338072Y-99800001D01*
X154338072Y-99149999D01*
X154321008Y-98976745D01*
X154270472Y-98810149D01*
X154188405Y-98656613D01*
X154077962Y-98522038D01*
X153943387Y-98411595D01*
X153789851Y-98329528D01*
X153760000Y-98320473D01*
X153760000Y-97179527D01*
X153789851Y-97170472D01*
X153943387Y-97088405D01*
X154077962Y-96977962D01*
X154188405Y-96843387D01*
X154270472Y-96689851D01*
X154321008Y-96523255D01*
X154338072Y-96350001D01*
X154338072Y-95699999D01*
X154321008Y-95526745D01*
X154270472Y-95360149D01*
X154188405Y-95206613D01*
X154077962Y-95072038D01*
X154071406Y-95066658D01*
X154151185Y-95001185D01*
X154230537Y-94904494D01*
X154289502Y-94794180D01*
X154325812Y-94674482D01*
X154338072Y-94550000D01*
X154335000Y-94260750D01*
X154176250Y-94102000D01*
X153127000Y-94102000D01*
X153127000Y-94122000D01*
X152873000Y-94122000D01*
X152873000Y-94102000D01*
X151823750Y-94102000D01*
X151665000Y-94260750D01*
X151661928Y-94550000D01*
X151674188Y-94674482D01*
X151710498Y-94794180D01*
X151769463Y-94904494D01*
X151848815Y-95001185D01*
X151928594Y-95066658D01*
X151922038Y-95072038D01*
X151811595Y-95206613D01*
X151780386Y-95265000D01*
X150812333Y-95265000D01*
X150775000Y-95261323D01*
X150737667Y-95265000D01*
X150626014Y-95275997D01*
X150482753Y-95319454D01*
X150350724Y-95390026D01*
X150234999Y-95484999D01*
X150211196Y-95514003D01*
X150120199Y-95605000D01*
X150049870Y-95605000D01*
X150075812Y-95519482D01*
X150088072Y-95395000D01*
X150085000Y-95380750D01*
X149926250Y-95222000D01*
X148602000Y-95222000D01*
X148602000Y-95242000D01*
X148348000Y-95242000D01*
X148348000Y-95222000D01*
X147023750Y-95222000D01*
X146865000Y-95380750D01*
X146861928Y-95395000D01*
X146874188Y-95519482D01*
X146910498Y-95639180D01*
X146969463Y-95749494D01*
X146993730Y-95779064D01*
X146921916Y-95913418D01*
X146877071Y-96061255D01*
X146861928Y-96215000D01*
X146861928Y-96515000D01*
X146869808Y-96595007D01*
X146128804Y-95854003D01*
X146105001Y-95824999D01*
X145989276Y-95730026D01*
X145857247Y-95659454D01*
X145713986Y-95615997D01*
X145602333Y-95605000D01*
X145602322Y-95605000D01*
X145565000Y-95601324D01*
X145527678Y-95605000D01*
X145046859Y-95605000D01*
X145078084Y-95546582D01*
X145122929Y-95398745D01*
X145138072Y-95245000D01*
X145138072Y-94945000D01*
X145123298Y-94795000D01*
X146861928Y-94795000D01*
X146865000Y-94809250D01*
X147023750Y-94968000D01*
X148348000Y-94968000D01*
X148348000Y-94318750D01*
X148602000Y-94318750D01*
X148602000Y-94968000D01*
X149926250Y-94968000D01*
X150085000Y-94809250D01*
X150088072Y-94795000D01*
X150075812Y-94670518D01*
X150039502Y-94550820D01*
X149980537Y-94440506D01*
X149901185Y-94343815D01*
X149804494Y-94264463D01*
X149694180Y-94205498D01*
X149574482Y-94169188D01*
X149450000Y-94156928D01*
X148760750Y-94160000D01*
X148602000Y-94318750D01*
X148348000Y-94318750D01*
X148189250Y-94160000D01*
X147500000Y-94156928D01*
X147375518Y-94169188D01*
X147255820Y-94205498D01*
X147145506Y-94264463D01*
X147048815Y-94343815D01*
X146969463Y-94440506D01*
X146910498Y-94550820D01*
X146874188Y-94670518D01*
X146861928Y-94795000D01*
X145123298Y-94795000D01*
X145122929Y-94791255D01*
X145078084Y-94643418D01*
X145005258Y-94507171D01*
X144907251Y-94387749D01*
X144787829Y-94289742D01*
X144651582Y-94216916D01*
X144503745Y-94172071D01*
X144427835Y-94164594D01*
X144495226Y-94001898D01*
X144535000Y-93801939D01*
X144535000Y-93598061D01*
X144495604Y-93400000D01*
X151661928Y-93400000D01*
X151665000Y-93689250D01*
X151823750Y-93848000D01*
X152873000Y-93848000D01*
X152873000Y-92923750D01*
X153127000Y-92923750D01*
X153127000Y-93848000D01*
X154176250Y-93848000D01*
X154335000Y-93689250D01*
X154338072Y-93400000D01*
X154325812Y-93275518D01*
X154289502Y-93155820D01*
X154230537Y-93045506D01*
X154151185Y-92948815D01*
X154054494Y-92869463D01*
X153944180Y-92810498D01*
X153824482Y-92774188D01*
X153700000Y-92761928D01*
X153285750Y-92765000D01*
X153127000Y-92923750D01*
X152873000Y-92923750D01*
X152714250Y-92765000D01*
X152300000Y-92761928D01*
X152175518Y-92774188D01*
X152055820Y-92810498D01*
X151945506Y-92869463D01*
X151848815Y-92948815D01*
X151769463Y-93045506D01*
X151710498Y-93155820D01*
X151674188Y-93275518D01*
X151661928Y-93400000D01*
X144495604Y-93400000D01*
X144495226Y-93398102D01*
X144417205Y-93209744D01*
X144303937Y-93040226D01*
X144159774Y-92896063D01*
X143990256Y-92782795D01*
X143801898Y-92704774D01*
X143601939Y-92665000D01*
X143398061Y-92665000D01*
X143198102Y-92704774D01*
X143009744Y-92782795D01*
X142840226Y-92896063D01*
X142696063Y-93040226D01*
X142582795Y-93209744D01*
X142504774Y-93398102D01*
X142465000Y-93598061D01*
X142465000Y-93801939D01*
X142504774Y-94001898D01*
X142574125Y-94169326D01*
X142546255Y-94172071D01*
X142398418Y-94216916D01*
X142262171Y-94289742D01*
X142142749Y-94387749D01*
X142044742Y-94507171D01*
X141971916Y-94643418D01*
X141927071Y-94791255D01*
X141911928Y-94945000D01*
X141911928Y-95245000D01*
X141921993Y-95347192D01*
X140588804Y-94014003D01*
X140565001Y-93984999D01*
X140449276Y-93890026D01*
X140317247Y-93819454D01*
X140235459Y-93794644D01*
X140188405Y-93706613D01*
X140077962Y-93572038D01*
X139990184Y-93500000D01*
X140077962Y-93427962D01*
X140188405Y-93293387D01*
X140270472Y-93139851D01*
X140321008Y-92973255D01*
X140338072Y-92800001D01*
X140338072Y-92149999D01*
X140321008Y-91976745D01*
X140270472Y-91810149D01*
X140188405Y-91656613D01*
X140077962Y-91522038D01*
X139948164Y-91415515D01*
X139995226Y-91301898D01*
X140035000Y-91101939D01*
X140035000Y-90898061D01*
X139995226Y-90698102D01*
X139917205Y-90509744D01*
X139803937Y-90340226D01*
X139659774Y-90196063D01*
X139490256Y-90082795D01*
X139301898Y-90004774D01*
X139101939Y-89965000D01*
X138898061Y-89965000D01*
X138698102Y-90004774D01*
X138509744Y-90082795D01*
X138340226Y-90196063D01*
X138196063Y-90340226D01*
X138082795Y-90509744D01*
X138004774Y-90698102D01*
X137965000Y-90898061D01*
X137965000Y-91101939D01*
X138004774Y-91301898D01*
X138051836Y-91415515D01*
X137922038Y-91522038D01*
X137811595Y-91656613D01*
X137729528Y-91810149D01*
X137678992Y-91976745D01*
X137661928Y-92149999D01*
X130660000Y-92149999D01*
X130660000Y-82660000D01*
X161340001Y-82660000D01*
X161340000Y-111340000D01*
X161340000Y-111340000D01*
G37*
X161340000Y-111340000D02*
X130660000Y-111340000D01*
X130660000Y-92149999D01*
X137661928Y-92149999D01*
X137661928Y-92800001D01*
X137678992Y-92973255D01*
X137729528Y-93139851D01*
X137811595Y-93293387D01*
X137922038Y-93427962D01*
X138009816Y-93500000D01*
X137922038Y-93572038D01*
X137811595Y-93706613D01*
X137729528Y-93860149D01*
X137678992Y-94026745D01*
X137661928Y-94199999D01*
X137661928Y-94850001D01*
X137678992Y-95023255D01*
X137729528Y-95189851D01*
X137811595Y-95343387D01*
X137922038Y-95477962D01*
X138056613Y-95588405D01*
X138210149Y-95670472D01*
X138376745Y-95721008D01*
X138549999Y-95738072D01*
X139450001Y-95738072D01*
X139623255Y-95721008D01*
X139789851Y-95670472D01*
X139943387Y-95588405D01*
X139981953Y-95556754D01*
X141300198Y-96875000D01*
X140774802Y-96875000D01*
X140363803Y-96464002D01*
X140340001Y-96434999D01*
X140297852Y-96400408D01*
X140270472Y-96310149D01*
X140188405Y-96156613D01*
X140077962Y-96022038D01*
X139943387Y-95911595D01*
X139789851Y-95829528D01*
X139623255Y-95778992D01*
X139450001Y-95761928D01*
X138549999Y-95761928D01*
X138376745Y-95778992D01*
X138210149Y-95829528D01*
X138056613Y-95911595D01*
X137922038Y-96022038D01*
X137811595Y-96156613D01*
X137729528Y-96310149D01*
X137678992Y-96476745D01*
X137661928Y-96649999D01*
X137661928Y-97300001D01*
X137678992Y-97473255D01*
X137729528Y-97639851D01*
X137811595Y-97793387D01*
X137922038Y-97927962D01*
X138009816Y-98000000D01*
X137922038Y-98072038D01*
X137811595Y-98206613D01*
X137729528Y-98360149D01*
X137678992Y-98526745D01*
X137661928Y-98699999D01*
X137661928Y-99350001D01*
X137678992Y-99523255D01*
X137729528Y-99689851D01*
X137811595Y-99843387D01*
X137922038Y-99977962D01*
X138056613Y-100088405D01*
X138210149Y-100170472D01*
X138240000Y-100179527D01*
X138240001Y-100320473D01*
X138210149Y-100329528D01*
X138056613Y-100411595D01*
X137922038Y-100522038D01*
X137811595Y-100656613D01*
X137729528Y-100810149D01*
X137678992Y-100976745D01*
X137661928Y-101149999D01*
X137661928Y-101800001D01*
X137678992Y-101973255D01*
X137729528Y-102139851D01*
X137811595Y-102293387D01*
X137922038Y-102427962D01*
X138009816Y-102500000D01*
X137922038Y-102572038D01*
X137811595Y-102706613D01*
X137729528Y-102860149D01*
X137678992Y-103026745D01*
X137661928Y-103199999D01*
X137661928Y-103850001D01*
X137678992Y-104023255D01*
X137729528Y-104189851D01*
X137811595Y-104343387D01*
X137922038Y-104477962D01*
X138051836Y-104584485D01*
X138004774Y-104698102D01*
X137965000Y-104898061D01*
X137965000Y-105101939D01*
X138004774Y-105301898D01*
X138082795Y-105490256D01*
X138196063Y-105659774D01*
X138340226Y-105803937D01*
X138509744Y-105917205D01*
X138698102Y-105995226D01*
X138898061Y-106035000D01*
X139101939Y-106035000D01*
X139301898Y-105995226D01*
X139490256Y-105917205D01*
X139659774Y-105803937D01*
X139803937Y-105659774D01*
X139917205Y-105490256D01*
X139995226Y-105301898D01*
X140035000Y-105101939D01*
X140035000Y-104898061D01*
X139995226Y-104698102D01*
X139948164Y-104584485D01*
X140077962Y-104477962D01*
X140188405Y-104343387D01*
X140270472Y-104189851D01*
X140321008Y-104023255D01*
X140338072Y-103850001D01*
X140338072Y-103199999D01*
X140321008Y-103026745D01*
X140270472Y-102860149D01*
X140188405Y-102706613D01*
X140077962Y-102572038D01*
X139990184Y-102500000D01*
X140077962Y-102427962D01*
X140188405Y-102293387D01*
X140270472Y-102139851D01*
X140321008Y-101973255D01*
X140338072Y-101800001D01*
X140338072Y-101149999D01*
X140321008Y-100976745D01*
X140270472Y-100810149D01*
X140188405Y-100656613D01*
X140077962Y-100522038D01*
X139943387Y-100411595D01*
X139789851Y-100329528D01*
X139760000Y-100320473D01*
X139760000Y-100179527D01*
X139789851Y-100170472D01*
X139943387Y-100088405D01*
X140077962Y-99977962D01*
X140188405Y-99843387D01*
X140270472Y-99689851D01*
X140321008Y-99523255D01*
X140338072Y-99350001D01*
X140338072Y-99205000D01*
X141911928Y-99205000D01*
X141924188Y-99329482D01*
X141960498Y-99449180D01*
X142019463Y-99559494D01*
X142098815Y-99656185D01*
X142195506Y-99735537D01*
X142305820Y-99794502D01*
X142425518Y-99830812D01*
X142550000Y-99843072D01*
X143239250Y-99840000D01*
X143398000Y-99681250D01*
X143398000Y-99032000D01*
X143652000Y-99032000D01*
X143652000Y-99681250D01*
X143810750Y-99840000D01*
X144500000Y-99843072D01*
X144624482Y-99830812D01*
X144744180Y-99794502D01*
X144854494Y-99735537D01*
X144951185Y-99656185D01*
X145030537Y-99559494D01*
X145089502Y-99449180D01*
X145125812Y-99329482D01*
X145138072Y-99205000D01*
X145135000Y-99190750D01*
X144976250Y-99032000D01*
X143652000Y-99032000D01*
X143398000Y-99032000D01*
X142073750Y-99032000D01*
X141915000Y-99190750D01*
X141911928Y-99205000D01*
X140338072Y-99205000D01*
X140338072Y-98699999D01*
X140321008Y-98526745D01*
X140274333Y-98372876D01*
X140311014Y-98384003D01*
X140422667Y-98395000D01*
X140422677Y-98395000D01*
X140460000Y-98398676D01*
X140497323Y-98395000D01*
X141950130Y-98395000D01*
X141924188Y-98480518D01*
X141911928Y-98605000D01*
X141915000Y-98619250D01*
X142073750Y-98778000D01*
X143398000Y-98778000D01*
X143398000Y-98758000D01*
X143652000Y-98758000D01*
X143652000Y-98778000D01*
X144976250Y-98778000D01*
X145135000Y-98619250D01*
X145138072Y-98605000D01*
X145125812Y-98480518D01*
X145089502Y-98360820D01*
X145030537Y-98250506D01*
X145006270Y-98220936D01*
X145078084Y-98086582D01*
X145122929Y-97938745D01*
X145138072Y-97785000D01*
X145138072Y-97485000D01*
X145122929Y-97331255D01*
X145078084Y-97183418D01*
X145046859Y-97125000D01*
X145250199Y-97125000D01*
X146271200Y-98146002D01*
X146294999Y-98175001D01*
X146410724Y-98269974D01*
X146542753Y-98340546D01*
X146686014Y-98384003D01*
X146797667Y-98395000D01*
X146797676Y-98395000D01*
X146834999Y-98398676D01*
X146872322Y-98395000D01*
X146953141Y-98395000D01*
X146921916Y-98453418D01*
X146877071Y-98601255D01*
X146861928Y-98755000D01*
X146861928Y-99055000D01*
X146877071Y-99208745D01*
X146921916Y-99356582D01*
X146994742Y-99492829D01*
X147092749Y-99612251D01*
X147212171Y-99710258D01*
X147348418Y-99783084D01*
X147496255Y-99827929D01*
X147650000Y-99843072D01*
X149300000Y-99843072D01*
X149453745Y-99827929D01*
X149601582Y-99783084D01*
X149737829Y-99710258D01*
X149857251Y-99612251D01*
X149927207Y-99527009D01*
X151661928Y-101261730D01*
X151661928Y-101850001D01*
X151678992Y-102023255D01*
X151729528Y-102189851D01*
X151811595Y-102343387D01*
X151922038Y-102477962D01*
X152056613Y-102588405D01*
X152210149Y-102670472D01*
X152376745Y-102721008D01*
X152549999Y-102738072D01*
X153450001Y-102738072D01*
X153623255Y-102721008D01*
X153789851Y-102670472D01*
X153943387Y-102588405D01*
X154077962Y-102477962D01*
X154188405Y-102343387D01*
X154270472Y-102189851D01*
X154321008Y-102023255D01*
X154338072Y-101850001D01*
X154338072Y-101199999D01*
X154321008Y-101026745D01*
X154270472Y-100860149D01*
X154188405Y-100706613D01*
X154077962Y-100572038D01*
X153990184Y-100500000D01*
X154077962Y-100427962D01*
X154188405Y-100293387D01*
X154270472Y-100139851D01*
X154321008Y-99973255D01*
X154338072Y-99800001D01*
X154338072Y-99149999D01*
X154321008Y-98976745D01*
X154270472Y-98810149D01*
X154188405Y-98656613D01*
X154077962Y-98522038D01*
X153943387Y-98411595D01*
X153789851Y-98329528D01*
X153760000Y-98320473D01*
X153760000Y-97179527D01*
X153789851Y-97170472D01*
X153943387Y-97088405D01*
X154077962Y-96977962D01*
X154188405Y-96843387D01*
X154270472Y-96689851D01*
X154321008Y-96523255D01*
X154338072Y-96350001D01*
X154338072Y-95699999D01*
X154321008Y-95526745D01*
X154270472Y-95360149D01*
X154188405Y-95206613D01*
X154077962Y-95072038D01*
X154071406Y-95066658D01*
X154151185Y-95001185D01*
X154230537Y-94904494D01*
X154289502Y-94794180D01*
X154325812Y-94674482D01*
X154338072Y-94550000D01*
X154335000Y-94260750D01*
X154176250Y-94102000D01*
X153127000Y-94102000D01*
X153127000Y-94122000D01*
X152873000Y-94122000D01*
X152873000Y-94102000D01*
X151823750Y-94102000D01*
X151665000Y-94260750D01*
X151661928Y-94550000D01*
X151674188Y-94674482D01*
X151710498Y-94794180D01*
X151769463Y-94904494D01*
X151848815Y-95001185D01*
X151928594Y-95066658D01*
X151922038Y-95072038D01*
X151811595Y-95206613D01*
X151780386Y-95265000D01*
X150812333Y-95265000D01*
X150775000Y-95261323D01*
X150737667Y-95265000D01*
X150626014Y-95275997D01*
X150482753Y-95319454D01*
X150350724Y-95390026D01*
X150234999Y-95484999D01*
X150211196Y-95514003D01*
X150120199Y-95605000D01*
X150049870Y-95605000D01*
X150075812Y-95519482D01*
X150088072Y-95395000D01*
X150085000Y-95380750D01*
X149926250Y-95222000D01*
X148602000Y-95222000D01*
X148602000Y-95242000D01*
X148348000Y-95242000D01*
X148348000Y-95222000D01*
X147023750Y-95222000D01*
X146865000Y-95380750D01*
X146861928Y-95395000D01*
X146874188Y-95519482D01*
X146910498Y-95639180D01*
X146969463Y-95749494D01*
X146993730Y-95779064D01*
X146921916Y-95913418D01*
X146877071Y-96061255D01*
X146861928Y-96215000D01*
X146861928Y-96515000D01*
X146869808Y-96595007D01*
X146128804Y-95854003D01*
X146105001Y-95824999D01*
X145989276Y-95730026D01*
X145857247Y-95659454D01*
X145713986Y-95615997D01*
X145602333Y-95605000D01*
X145602322Y-95605000D01*
X145565000Y-95601324D01*
X145527678Y-95605000D01*
X145046859Y-95605000D01*
X145078084Y-95546582D01*
X145122929Y-95398745D01*
X145138072Y-95245000D01*
X145138072Y-94945000D01*
X145123298Y-94795000D01*
X146861928Y-94795000D01*
X146865000Y-94809250D01*
X147023750Y-94968000D01*
X148348000Y-94968000D01*
X148348000Y-94318750D01*
X148602000Y-94318750D01*
X148602000Y-94968000D01*
X149926250Y-94968000D01*
X150085000Y-94809250D01*
X150088072Y-94795000D01*
X150075812Y-94670518D01*
X150039502Y-94550820D01*
X149980537Y-94440506D01*
X149901185Y-94343815D01*
X149804494Y-94264463D01*
X149694180Y-94205498D01*
X149574482Y-94169188D01*
X149450000Y-94156928D01*
X148760750Y-94160000D01*
X148602000Y-94318750D01*
X148348000Y-94318750D01*
X148189250Y-94160000D01*
X147500000Y-94156928D01*
X147375518Y-94169188D01*
X147255820Y-94205498D01*
X147145506Y-94264463D01*
X147048815Y-94343815D01*
X146969463Y-94440506D01*
X146910498Y-94550820D01*
X146874188Y-94670518D01*
X146861928Y-94795000D01*
X145123298Y-94795000D01*
X145122929Y-94791255D01*
X145078084Y-94643418D01*
X145005258Y-94507171D01*
X144907251Y-94387749D01*
X144787829Y-94289742D01*
X144651582Y-94216916D01*
X144503745Y-94172071D01*
X144427835Y-94164594D01*
X144495226Y-94001898D01*
X144535000Y-93801939D01*
X144535000Y-93598061D01*
X144495604Y-93400000D01*
X151661928Y-93400000D01*
X151665000Y-93689250D01*
X151823750Y-93848000D01*
X152873000Y-93848000D01*
X152873000Y-92923750D01*
X153127000Y-92923750D01*
X153127000Y-93848000D01*
X154176250Y-93848000D01*
X154335000Y-93689250D01*
X154338072Y-93400000D01*
X154325812Y-93275518D01*
X154289502Y-93155820D01*
X154230537Y-93045506D01*
X154151185Y-92948815D01*
X154054494Y-92869463D01*
X153944180Y-92810498D01*
X153824482Y-92774188D01*
X153700000Y-92761928D01*
X153285750Y-92765000D01*
X153127000Y-92923750D01*
X152873000Y-92923750D01*
X152714250Y-92765000D01*
X152300000Y-92761928D01*
X152175518Y-92774188D01*
X152055820Y-92810498D01*
X151945506Y-92869463D01*
X151848815Y-92948815D01*
X151769463Y-93045506D01*
X151710498Y-93155820D01*
X151674188Y-93275518D01*
X151661928Y-93400000D01*
X144495604Y-93400000D01*
X144495226Y-93398102D01*
X144417205Y-93209744D01*
X144303937Y-93040226D01*
X144159774Y-92896063D01*
X143990256Y-92782795D01*
X143801898Y-92704774D01*
X143601939Y-92665000D01*
X143398061Y-92665000D01*
X143198102Y-92704774D01*
X143009744Y-92782795D01*
X142840226Y-92896063D01*
X142696063Y-93040226D01*
X142582795Y-93209744D01*
X142504774Y-93398102D01*
X142465000Y-93598061D01*
X142465000Y-93801939D01*
X142504774Y-94001898D01*
X142574125Y-94169326D01*
X142546255Y-94172071D01*
X142398418Y-94216916D01*
X142262171Y-94289742D01*
X142142749Y-94387749D01*
X142044742Y-94507171D01*
X141971916Y-94643418D01*
X141927071Y-94791255D01*
X141911928Y-94945000D01*
X141911928Y-95245000D01*
X141921993Y-95347192D01*
X140588804Y-94014003D01*
X140565001Y-93984999D01*
X140449276Y-93890026D01*
X140317247Y-93819454D01*
X140235459Y-93794644D01*
X140188405Y-93706613D01*
X140077962Y-93572038D01*
X139990184Y-93500000D01*
X140077962Y-93427962D01*
X140188405Y-93293387D01*
X140270472Y-93139851D01*
X140321008Y-92973255D01*
X140338072Y-92800001D01*
X140338072Y-92149999D01*
X140321008Y-91976745D01*
X140270472Y-91810149D01*
X140188405Y-91656613D01*
X140077962Y-91522038D01*
X139948164Y-91415515D01*
X139995226Y-91301898D01*
X140035000Y-91101939D01*
X140035000Y-90898061D01*
X139995226Y-90698102D01*
X139917205Y-90509744D01*
X139803937Y-90340226D01*
X139659774Y-90196063D01*
X139490256Y-90082795D01*
X139301898Y-90004774D01*
X139101939Y-89965000D01*
X138898061Y-89965000D01*
X138698102Y-90004774D01*
X138509744Y-90082795D01*
X138340226Y-90196063D01*
X138196063Y-90340226D01*
X138082795Y-90509744D01*
X138004774Y-90698102D01*
X137965000Y-90898061D01*
X137965000Y-91101939D01*
X138004774Y-91301898D01*
X138051836Y-91415515D01*
X137922038Y-91522038D01*
X137811595Y-91656613D01*
X137729528Y-91810149D01*
X137678992Y-91976745D01*
X137661928Y-92149999D01*
X130660000Y-92149999D01*
X130660000Y-82660000D01*
X161340001Y-82660000D01*
X161340000Y-111340000D01*
M02*
